<svg id="Layer_1" data-name="Layer 1" xmlns="http://www.w3.org/2000/svg" viewBox="0 0 276.56 378.08"><defs><style>.cls-1{fill:none;stroke:#0b3150;stroke-linecap:round;stroke-linejoin:round;stroke-width:5px;}.cls-2{fill:#f2686f;}.cls-3{fill:#069763;}.cls-4{fill:#045e73;}.cls-5{fill:#0b3150;}</style></defs><polyline class="cls-1" points="76.39 294.6 84.93 269.72 91.41 289.01 103.19 267.66 104.66 291.07"/><line class="cls-1" x1="123.95" y1="269.42" x2="123.36" y2="293.13"/><line class="cls-1" x1="142.5" y1="294.6" x2="145.15" y2="271.63"/><line class="cls-1" x1="135.88" y1="270.9" x2="153.25" y2="270.9"/><polyline class="cls-1" points="160.32 291.8 169.3 267.66 179.25 291.21"/><line class="cls-1" x1="163.85" y1="282.32" x2="173.87" y2="281.13"/><polyline class="cls-1" points="194.57 267.07 193.84 291.21 206.06 290.04"/><line class="cls-1" x1="219.58" y1="269.9" x2="220.17" y2="291.54"/><line class="cls-1" x1="45.51" y1="306.98" x2="45.51" y2="334.81"/><path class="cls-1" d="M207.58,514.72s22.52-4.41,23,4.86-15.32,9.94-15.32,9.94,16.49-1,16.64,5.67-19.43,8.24-19.43,8.24" transform="translate(-166.93 -208.63)"/><polyline class="cls-1" points="75.4 334.81 81.29 308.3 90.86 332.45"/><line class="cls-1" x1="77.47" y1="325.5" x2="86.73" y2="324.21"/><polyline class="cls-1" points="99.84 330.83 103.23 309.63 119.86 329.95 120.89 309.63"/><polyline class="cls-1" points="146.07 309.63 132.67 310.95 130.02 331.57 144.75 330.83"/><line class="cls-1" x1="143.13" y1="320.6" x2="131.31" y2="321.56"/><path class="cls-1" d="M325.66,546.23V521.05s12.08-.88,13,4.72-12.37,8.36-12.37,8.36l15.17,8" transform="translate(-166.93 -208.63)"/><path class="cls-1" d="M368.51,516.93l-1.85,20.22a6.62,6.62,0,0,1-8.08,5.89c-4.24-1-8.37-3.91-6.56-11.53" transform="translate(-166.93 -208.63)"/><polyline class="cls-1" points="229.26 312.38 216.75 313.16 216.75 334.22 229.26 334.22"/><line class="cls-1" x1="227.94" y1="323.3" x2="216.75" y2="324.21"/><polyline class="cls-1" points="255.91 312.38 245.16 314.49 243.84 337.6 255.03 335.99"/><line class="cls-1" x1="254.44" y1="323.75" x2="244.57" y2="324.85"/><path class="cls-1" d="M258.82,584.21V557s13.84-1.91,13.84,4-13.84,7.65-13.84,7.65l15.46,10" transform="translate(-166.93 -208.63)"/><path class="cls-1" d="M287.53,558.44s-2,21.21,6.73,20.91,7.4-20.32,7.4-20.32" transform="translate(-166.93 -208.63)"/><line class="cls-1" x1="144.16" y1="353.06" x2="161.09" y2="351.88"/><line class="cls-1" x1="152.55" y1="373.52" x2="152.62" y2="352.47"/><line class="cls-1" x1="170.51" y1="352.47" x2="169.78" y2="371.75"/><line class="cls-1" x1="183.18" y1="349.82" x2="183.18" y2="375.58"/><line class="cls-1" x1="170.15" y1="362.7" x2="182" y2="362.11"/><path class="cls-1" d="M371.6,561.09s-10-1.47-10.31,3.39,8.69,7.36,8.54,11.78-6,5.89-11,5.3" transform="translate(-166.93 -208.63)"/><path class="cls-2" d="M205.87,379.66l-2.56,11.42a2,2,0,0,1-1.37,1.48l-10.06,3.07a2,2,0,0,0-.3,3.71l9.5,4.65a2,2,0,0,1,1.06,2.28l-2.88,11.52a2,2,0,0,0,3.29,2l10.91-10.06a2,2,0,0,1,2-.42l15.19,5a2,2,0,0,0,2.23-3.09l-7.48-10.07a2,2,0,0,1-.12-2.22l4.17-7a2,2,0,0,0-1.82-3l-10.37.5a2,2,0,0,1-1.79-.93l-6-9.44A2,2,0,0,0,205.87,379.66Z" transform="translate(-166.93 -208.63)"/><path class="cls-3" d="M195.39,264.37s0,0,0,0c-2.89,19.61,4.55,49.45,13.82,67.5,8.36,16.28,25.39,36.93,41.57,47.48,0,0,.07,0,.05,0l-34.16-66.51a3.23,3.23,0,0,1,5.74-2.95l34.16,66.51s.07,0,.07,0c.84-19.31-6-45.17-14.38-61.45C232.94,296.87,213,273.44,195.39,264.37Z" transform="translate(-166.93 -208.63)"/><path class="cls-4" d="M187.41,318.82h0c-2.65-5.46-5.61-8.31-10.09-9.27h-.07l-.66-.14-.63-.12-.65-.12-.61-.1-.62-.1h0a0,0,0,0,0,0,0h0l.18.76.18.73c.07.27.15.55.23.82s.13.48.2.73.17.55.25.83l.23.74.28.82c.09.26.17.51.26.78l.3.81c.1.26.19.53.29.79s.22.55.32.82.21.54.33.81l.35.83c.11.27.22.53.34.8s.24.56.37.83l.36.82.39.83.39.82.41.82c.13.28.27.56.41.84l.43.83c.15.27.29.55.43.83s.31.56.46.85.29.53.44.8l.45.8.48.86.46.78.5.87.51.83c.16.27.32.54.49.8l.52.84.5.79c.16.26.33.52.5.77s.36.57.55.85l.48.73.59.87.49.71.6.87.48.68.63.87.57.78.55.75.61.81.53.7.63.81c.18.22.35.45.52.67l.67.82.49.62.67.8.5.61.57.66c.2.24.4.48.61.71l.48.55.69.78.48.53.7.76.45.48.72.77.91.93.26.26.9.88.27.27c.38.37.77.74,1.15,1.09.55.51,1.12,1,1.71,1.54l.6.51,1.22,1,.78.62c.38.31.75.62,1.14.92l.88.68,1.13.87,1,.7,1.14.83,1,.7,1.16.81c.34.24.7.47,1.05.71L218,368l1.09.7,1.21.77,1.1.67c.41.25.82.51,1.24.75l1.14.67,1.25.72,1.16.64,1.26.7,1.18.62,1.27.66,1.19.59,1.28.64,1.18.55,1.29.6,1.19.53,1.28.56,1.2.49,1.17.48h0s.06,0,0-.06C211.78,365.36,194.53,334.18,187.41,318.82Z" transform="translate(-166.93 -208.63)"/><path class="cls-5" d="M442.94,387.43,410.37,229.79a26.52,26.52,0,0,0-50.68-4.26l-32.22,83.74a10,10,0,0,0,0,7.22l8.71,22.38a2.69,2.69,0,0,1-1.41,3.43h0a2.69,2.69,0,0,1-3.6-1.48l-18.05-46.33-26.88-69a26.51,26.51,0,0,0-50.66,4.17h0l-7.14,34.05a9.58,9.58,0,0,0,1.49,7.41l33.17,48.1a94.44,94.44,0,0,1,10.31,19.43l24.84,63.75.06.14c.21.52.44,1,.67,1.54.06.12.11.24.17.35.25.51.51,1,.8,1.5.08.16.18.31.27.47.25.41.51.82.78,1.22l.26.39c.29.41.59.82.91,1.22l.34.42c.35.43.72.85,1.1,1.26l.18.19c.37.38.74.75,1.13,1.11a2.73,2.73,0,0,1,.25.23q.68.6,1.38,1.17l.07.05c.47.36.94.7,1.43,1l.19.13c.51.34,1,.66,1.57,1l.07,0c.48.28,1,.54,1.49.78l.35.17c.53.25,1.06.48,1.61.7h0l0,0c.54.21,1.07.39,1.61.56l.37.11q.84.26,1.68.45l.17,0c.55.12,1.1.22,1.65.31l.24,0c.58.08,1.17.15,1.75.2l.31,0c.59,0,1.19.06,1.78.06h0c.59,0,1.19,0,1.79-.06l.3,0c.58-.05,1.17-.12,1.76-.2l.21,0c.57-.09,1.14-.19,1.71-.32l.12,0q.86-.19,1.71-.45l.32-.1c.57-.18,1.14-.37,1.7-.59s1.1-.46,1.63-.71,1.3-.65,1.78-.91l.1-.05c.55-.32,1.08-.65,1.6-1l.15-.1c.51-.34,1-.7,1.48-1.07l0,0c.48-.39.95-.78,1.4-1.19l.23-.21c.4-.37.78-.75,1.16-1.14l.15-.16c.39-.42.76-.84,1.12-1.28l.33-.41c.32-.4.63-.81.92-1.23.09-.12.17-.25.25-.37q.4-.6.78-1.23L346,406c.28-.5.54-1,.79-1.51.06-.11.11-.23.17-.35.24-.5.46-1,.67-1.54l.06-.14,28.88-74.12,7.29-18.7a2.49,2.49,0,0,1,3.11-1.46h0a2.49,2.49,0,0,1,1.56,3.21L379.2,337a10,10,0,0,0-.38,5.56L391,398.16a26.52,26.52,0,1,0,51.95-10.73Z" transform="translate(-166.93 -208.63)"/><path class="cls-5" d="M263.78,390.5a13,13,0,0,1-1.29-7.75c2.87-21.13-4.69-51.61-14.54-70.78-10.68-20.78-33.71-47.14-53.78-55.26a3.22,3.22,0,0,0-3.83,1.1,3.07,3.07,0,0,0-.53,1.18c-3.2,13.32-1.17,31.82,3.45,48.88a0,0,0,0,1,0,0c-8-3.34-16-5.53-22.93-5.78a3.34,3.34,0,0,0-1.14.15,3.24,3.24,0,0,0-2.2,3.44c2.05,18.19,18.23,42.92,32.7,56.31,13.15,12.19,35.75,25.07,53.49,27.8a6.48,6.48,0,0,1,4.8,3.44l2.17,4.22a1.93,1.93,0,0,1-2.1,2.78l-5.67-1.15a3.22,3.22,0,0,0-3.85,2.81,3.34,3.34,0,0,0,2.73,3.55l10.54,2.14a8.41,8.41,0,0,1,5.82,4.4l2.7,5.27a3.23,3.23,0,0,0,5.74-3Zm-24.11-11.15h0l-1.17-.48-1.2-.49-1.28-.56-1.19-.53-1.29-.6-1.18-.55-1.28-.64-1.19-.59-1.27-.66-1.18-.62-1.26-.7-1.16-.64-1.25-.72-1.14-.67c-.42-.24-.83-.5-1.24-.75l-1.1-.67-1.21-.77L218,368l-1.18-.78c-.35-.24-.71-.47-1.05-.71l-1.16-.81-1-.7-1.14-.83-1-.7-1.13-.87-.88-.68c-.39-.3-.76-.61-1.14-.92l-.78-.62-1.22-1-.6-.51c-.59-.51-1.16-1-1.71-1.54-.38-.35-.77-.72-1.15-1.09l-.27-.27-.9-.88-.26-.26-.91-.93-.72-.77-.45-.48-.7-.76-.48-.53-.69-.78L197,350c-.21-.23-.41-.47-.61-.71l-.57-.66-.5-.61-.67-.8-.49-.62-.67-.82c-.17-.22-.34-.45-.52-.67l-.63-.81-.53-.7-.61-.81-.55-.75-.57-.78-.63-.87-.48-.68-.6-.87-.49-.71-.59-.87-.48-.73c-.19-.28-.37-.56-.55-.85s-.34-.51-.5-.77l-.5-.79-.52-.84c-.17-.26-.33-.53-.49-.8l-.51-.83-.5-.87-.46-.78-.48-.86-.45-.8c-.15-.27-.29-.54-.44-.8s-.31-.57-.46-.85-.28-.56-.43-.83l-.43-.83c-.14-.28-.28-.56-.41-.84l-.41-.82-.39-.82-.39-.83-.36-.82c-.13-.27-.25-.55-.37-.83s-.23-.53-.34-.8l-.35-.83c-.12-.27-.22-.54-.33-.81s-.21-.55-.32-.82-.19-.53-.29-.79l-.3-.81c-.09-.27-.17-.52-.26-.78l-.28-.82-.23-.74c-.08-.28-.17-.56-.25-.83s-.14-.49-.2-.73-.16-.55-.23-.82l-.18-.73L174,309h0a0,0,0,0,1,0,0h0l.62.1.61.1.65.12.63.12.66.14h.07c4.48,1,7.44,3.81,10.09,9.27h0c7.12,15.36,24.37,46.54,52.29,60.47C239.73,379.31,239.71,379.35,239.67,379.35Zm16.92-3s0,0-.07,0l-34.16-66.51a3.23,3.23,0,0,0-5.74,2.95l34.16,66.51s0,.06-.05,0c-16.18-10.55-33.21-31.2-41.57-47.48-9.27-18.05-16.71-47.89-13.82-67.5,0,0,0,0,0,0,17.62,9.07,37.55,32.5,46.82,50.55C250.57,331.2,257.43,357.06,256.59,376.37Z" transform="translate(-166.93 -208.63)"/></svg>