<?xml version="1.0" encoding="utf-8"?>
<!-- Generator: Adobe Illustrator 25.3.1, SVG Export Plug-In . SVG Version: 6.00 Build 0)  -->
<svg version="1.1" id="Layer_1" xmlns="http://www.w3.org/2000/svg" xmlns:xlink="http://www.w3.org/1999/xlink" x="0px" y="0px"
	 viewBox="0 0 100 100" style="enable-background:new 0 0 100 100;" xml:space="preserve">
<style type="text/css">
	.st0{fill:#FF676E;}
</style>
<path class="st0" d="M49.7,5.8c-1,0.1-1.8,1-1.8,2v6c0,1.1,0.9,2,2,2s2-0.9,2-2c0,0,0,0,0-0.1V7.8c0-1.1-0.9-2-2-2c0,0,0,0-0.1,0
	H49.7z M22.7,14.8c-1.1,0.1-1.9,1.1-1.8,2.2c0,0.4,0.2,0.8,0.5,1.2l9,11c0.7,0.9,2,1,2.8,0.3s1-2,0.3-2.8l-9-11
	c-0.4-0.5-1-0.8-1.6-0.8C22.8,14.8,22.7,14.8,22.7,14.8z M76.7,14.8c-0.5,0.1-1,0.3-1.3,0.8l-9,11c-0.7,0.9-0.6,2.1,0.3,2.8
	s2.1,0.6,2.8-0.3l9-11c0.7-0.8,0.6-2.1-0.2-2.8c-0.4-0.4-0.9-0.6-1.4-0.5C76.8,14.8,76.7,14.8,76.7,14.8z M49.7,26.8
	c-0.6,0-1.2,0.4-1.6,0.9L40.5,40l-14,2.8c-1.1,0.2-1.8,1.3-1.5,2.4c0.1,0.4,0.3,0.7,0.5,1l10.3,10.3l-1.9,14
	c-0.1,1.1,0.6,2.1,1.7,2.2c0.3,0,0.7,0,1-0.1L49.9,67l13.2,5.7c1,0.4,2.2-0.1,2.6-1.1c0.1-0.3,0.2-0.7,0.1-1l-1.9-14l10.3-10.3
	c0.8-0.8,0.8-2,0-2.8c-0.3-0.3-0.6-0.5-1-0.5l-14.1-2.8l-7.6-12.3C51.2,27.1,50.5,26.7,49.7,26.8z M49.9,32.6l6.3,10.2
	c0.3,0.5,0.8,0.8,1.3,0.9L68.8,46l-8.3,8.3c-0.4,0.4-0.6,1-0.6,1.7l1.5,11.5l-10.8-4.6c-0.5-0.2-1.1-0.2-1.6,0l-10.8,4.6L39.9,56
	c0.1-0.6-0.1-1.2-0.6-1.7L31,46l11.3-2.2c0.5-0.1,1-0.4,1.3-0.9L49.9,32.6z M91,38.8c-0.1,0-0.2,0-0.3,0c-0.1,0-0.1,0-0.2,0l-6,1
	c-1.1,0.1-1.9,1.2-1.7,2.2c0.1,1.1,1.2,1.9,2.2,1.7c0.1,0,0.1,0,0.2,0l6-1c1.1-0.1,1.9-1,1.9-2.1S92.1,38.7,91,38.8z M8.6,38.8
	c-1.1,0.1-1.9,1.1-1.8,2.2c0.1,0.9,0.9,1.6,1.8,1.8l6,1c1.1,0.2,2.1-0.5,2.4-1.5c0.2-1.1-0.5-2.1-1.5-2.4c-0.1,0-0.1,0-0.2,0l-6-1
	C9,38.8,8.8,38.8,8.6,38.8z M74.8,58.8c-0.1,0-0.1,0-0.2,0c-1.1,0.2-1.8,1.2-1.7,2.3c0.1,0.7,0.5,1.3,1.2,1.5l13,6
	c1,0.5,2.2,0.1,2.7-0.9s0.1-2.2-0.9-2.7c0,0-0.1,0-0.1-0.1l-13-6C75.4,58.8,75.1,58.8,74.8,58.8z M24.8,58.8c-0.2,0-0.5,0.1-0.7,0.2
	l-13,6c-1,0.4-1.5,1.6-1,2.6c0.4,1,1.6,1.5,2.6,1c0,0,0.1,0,0.1-0.1l13-6c1-0.5,1.4-1.7,1-2.7C26.4,59.2,25.6,58.7,24.8,58.8z
	 M49.7,75.8c-1,0.1-1.8,1-1.8,2v14c0,1.1,0.9,2,2,2s2-0.9,2-2c0,0,0,0,0-0.1V77.8c0-1.1-0.9-2-2-2c0,0,0,0-0.1,0H49.7z M29.8,77.8
	c-0.7,0-1.3,0.4-1.6,1l-3,5c-0.6,0.9-0.3,2.2,0.7,2.8s2.2,0.3,2.8-0.7l3-5c0.6-0.9,0.3-2.2-0.6-2.8C30.6,77.8,30.2,77.7,29.8,77.8z
	 M69.8,77.8c-1.1,0.1-2,1-1.9,2.1c0,0.3,0.1,0.7,0.3,1l3,5c0.6,0.9,1.8,1.3,2.8,0.7s1.3-1.8,0.7-2.8l-3-5
	C71.2,78.1,70.5,77.7,69.8,77.8z"/>
</svg>
